<?xml version="1.0" encoding="UTF-8" standalone="no"?>
<!DOCTYPE svg PUBLIC "-//W3C//DTD SVG 20010904//EN"
              "http://www.w3.org/TR/2001/REC-SVG-20010904/DTD/svg10.dtd">

<svg xmlns="http://www.w3.org/2000/svg"
     width="2.45803in" height="1.04154in"
     viewBox="0 0 177 75">
  <path id="選択範囲"
        fill="none" stroke="black" stroke-width="1"
        d="M 143.00,58.00
           C 129.85,57.98 108.60,64.53 95.00,67.20
             95.00,67.20 61.00,70.28 61.00,70.28
             61.00,70.28 42.00,72.90 42.00,72.90
             35.15,73.20 22.09,71.08 16.00,67.87
             13.67,66.63 11.26,65.10 9.73,62.90
             8.01,60.41 7.38,56.01 6.80,53.00
             4.56,41.36 5.14,34.14 9.00,23.00
             10.00,20.10 11.82,14.59 13.70,12.34
             16.15,9.39 23.30,6.57 27.00,5.24
             37.43,1.49 50.02,1.02 61.00,1.00
             61.00,1.00 76.00,0.09 76.00,0.09
             76.00,0.09 83.00,0.96 83.00,0.96
             83.00,0.96 95.00,0.96 95.00,0.96
             95.00,0.96 109.00,2.17 109.00,2.17
             109.00,2.17 134.00,6.57 134.00,6.57
             134.00,6.57 162.00,10.00 162.00,10.00
             162.00,10.00 169.00,16.00 169.00,16.00
             169.00,16.00 156.00,15.00 156.00,15.00
             159.59,20.98 162.42,17.32 169.00,22.00
             162.77,22.14 158.41,22.71 153.00,26.00
             156.43,26.19 165.78,28.50 168.16,30.85
             171.02,33.69 171.00,37.51 167.00,39.00
             170.08,42.71 174.66,46.31 168.00,49.00
             168.00,49.00 169.00,52.00 169.00,52.00
             160.06,54.78 158.12,54.00 149.00,54.00
             149.00,54.00 155.00,59.00 155.00,59.00
             148.92,58.20 149.43,58.01 143.00,58.00 Z" />
</svg>
